<?xml version="1.0" encoding="UTF-8"?>
<svg xmlns="http://www.w3.org/2000/svg" xmlns:xlink="http://www.w3.org/1999/xlink" viewBox="0 0 48 48" width="48px" height="48px">
<g id="surface36059471">
<path style=" stroke:none;fill-rule:nonzero;fill:rgb(36.862746%,42.352942%,35.686275%);fill-opacity:1;" d="M 23.007812 5 C 11.601562 5 2.003906 12.550781 2.003906 22.238281 C 2.003906 30.875 9.605469 37.882812 19.503906 39.234375 C 19.734375 39.28125 19.976562 39.359375 20.132812 39.429688 C 20.117188 39.515625 20.152344 39.910156 20.105469 40.273438 L 20.105469 40.277344 C 20.09375 40.351562 19.882812 41.617188 19.835938 41.878906 C 19.761719 42.308594 19.523438 43.035156 20.191406 44.050781 C 20.527344 44.554688 21.285156 44.988281 21.960938 45 C 22.640625 45.011719 23.210938 44.789062 23.832031 44.449219 C 28.378906 41.945312 33.320312 39.125 37.214844 35.582031 C 41.109375 32.035156 44.003906 27.640625 44.003906 22.238281 C 44.003906 12.550781 34.414062 5 23.007812 5 Z M 23.007812 8 C 33.101562 8 41.003906 14.566406 41.003906 22.238281 C 41.003906 26.578125 38.734375 30.140625 35.195312 33.363281 C 31.800781 36.449219 27.285156 39.09375 22.941406 41.496094 C 23 41.148438 23.074219 40.71875 23.074219 40.71875 L 23.082031 40.671875 C 23.15625 40.109375 23.363281 39.265625 22.925781 38.164062 L 22.921875 38.160156 L 22.921875 38.15625 C 22.589844 37.332031 21.96875 36.976562 21.476562 36.738281 C 20.984375 36.5 20.515625 36.378906 20.125 36.296875 L 20.066406 36.285156 L 20.007812 36.277344 C 11.21875 35.121094 5.003906 29.125 5.003906 22.238281 C 5.003906 14.566406 12.914062 8 23.007812 8 Z M 18.335938 17.136719 C 17.769531 17.136719 17.3125 17.59375 17.3125 18.152344 L 17.3125 25.847656 C 17.3125 26.40625 17.769531 26.859375 18.335938 26.859375 C 18.898438 26.859375 19.359375 26.40625 19.359375 25.847656 L 19.359375 18.152344 C 19.359375 17.59375 18.898438 17.136719 18.335938 17.136719 Z M 21.851562 17.136719 C 21.742188 17.136719 21.632812 17.15625 21.527344 17.1875 C 21.109375 17.328125 20.828125 17.714844 20.828125 18.152344 L 20.828125 25.847656 C 20.828125 26.40625 21.289062 26.859375 21.855469 26.859375 C 22.417969 26.859375 22.878906 26.40625 22.878906 25.847656 L 22.878906 21.085938 L 26.855469 26.453125 C 27.046875 26.710938 27.351562 26.859375 27.671875 26.859375 C 27.78125 26.859375 27.890625 26.84375 27.996094 26.808594 C 28.417969 26.671875 28.695312 26.285156 28.695312 25.847656 L 28.695312 18.152344 C 28.695312 17.589844 28.238281 17.136719 27.671875 17.136719 C 27.109375 17.136719 26.648438 17.589844 26.648438 18.152344 L 26.648438 22.910156 L 22.671875 17.542969 C 22.480469 17.289062 22.171875 17.136719 21.851562 17.136719 Z M 11.46875 17.136719 C 10.902344 17.136719 10.445312 17.59375 10.445312 18.152344 L 10.445312 25.847656 C 10.445312 26.410156 10.902344 26.863281 11.46875 26.863281 L 15.347656 26.863281 C 15.910156 26.863281 16.367188 26.40625 16.367188 25.84375 C 16.367188 25.285156 15.910156 24.828125 15.347656 24.828125 L 12.488281 24.828125 L 12.488281 18.152344 C 12.488281 17.59375 12.03125 17.136719 11.464844 17.136719 Z M 31.097656 17.136719 C 30.53125 17.136719 30.070312 17.59375 30.070312 18.152344 L 30.070312 25.847656 C 30.070312 26.40625 30.53125 26.859375 31.097656 26.859375 L 34.972656 26.859375 C 35.539062 26.859375 36 26.40625 36 25.847656 C 36 25.285156 35.539062 24.832031 34.972656 24.832031 L 32.121094 24.832031 L 32.121094 23.015625 L 34.972656 23.015625 C 35.539062 23.015625 36 22.558594 36 22 C 36 21.4375 35.539062 20.984375 34.972656 20.984375 L 34.972656 20.988281 L 32.121094 20.988281 L 32.121094 19.171875 L 34.972656 19.171875 C 35.539062 19.171875 36 18.714844 36 18.15625 C 36 17.59375 35.539062 17.140625 34.972656 17.140625 Z M 31.097656 17.136719 "/>
</g>
</svg>
